<svg width="396" height="275" viewBox="0 0 396 275" fill="none" xmlns="http://www.w3.org/2000/svg">
<g clip-path="url(#clip0)">
<path d="M213.04 275C292.758 275 357.382 258.084 357.382 237.217C357.382 216.351 292.758 199.435 213.04 199.435C133.323 199.435 68.6985 216.351 68.6985 237.217C68.6985 258.084 133.323 275 213.04 275Z" fill="#F5F5F5"/>
<path d="M350.371 90.2397C350.371 90.2397 324.802 113.665 339.237 148.425C353.671 183.185 314.492 240.992 314.492 240.992C314.492 240.992 314.905 240.935 315.692 240.811C368.208 232.317 394.301 177.291 365.098 136.414C354.256 121.218 345.328 103.388 350.371 90.2397Z" fill="#009688"/>
<path d="M350.371 90.2397C350.371 90.2397 335.937 118.954 350.371 142.38C364.806 165.805 352.846 231.546 314.492 240.992" stroke="#535461" stroke-width="2" stroke-miterlimit="10"/>
<path d="M395.909 184.987C395.909 184.987 366.732 180.729 364.072 204.687C361.412 228.645 307.984 231.962 307.984 231.962C307.984 231.962 308.331 232.181 308.987 232.574C353.114 259.112 395.299 249.478 388.944 214.238C386.564 201.139 386.754 187.979 395.909 184.987Z" fill="#009688"/>
<path opacity="0.2" d="M395.909 184.987C395.909 184.987 366.732 180.729 364.072 204.687C361.412 228.645 307.984 231.962 307.984 231.962C307.984 231.962 308.331 232.181 308.987 232.574C353.114 259.112 395.299 249.478 388.944 214.238C386.564 201.139 386.754 187.979 395.909 184.987Z" fill="#F5F5F5"/>
<path d="M395.909 184.987C395.909 184.987 373.26 189.544 375.12 208.412C376.98 227.281 341.472 249.89 307.968 231.954" stroke="#535461" stroke-width="2" stroke-miterlimit="10"/>
<path opacity="0.2" d="M62.438 0.028965C59.114 -0.076826 55.7075 0.0289649 52.5897 1.09443C44.1065 3.99235 40.0856 13.472 41.3929 21.6821C42.7002 29.8923 48.078 37.0218 53.6579 43.5544C59.2377 50.087 65.2836 56.5365 68.3436 64.3348C69.8695 68.2302 70.583 72.5941 69.0323 76.4819C66.6404 82.478 59.4274 85.8293 52.5031 86.5245C45.5788 87.2197 38.6257 85.8633 31.6766 85.391C28.7609 85.2021 25.7628 85.1794 23.0161 86.056C20.0014 87.0119 17.4899 88.9614 15.1804 90.9941C6.16937 98.9663 -1.0436 109.848 0.123503 121.273C1.4432 134.225 13.2133 144.464 26.105 149.954C30.3734 151.775 34.8893 153.248 38.6463 155.848C48.544 162.702 50.7669 175.544 49.7812 186.882C48.7956 198.221 45.4386 209.571 47.3068 220.811C49.5049 233.884 59.2336 245.691 72.3563 251.207C84.048 256.119 98.6802 255.813 109.06 248.865C114.121 245.464 117.948 240.775 121.276 235.913C126.299 228.577 130.375 220.731 133.421 212.533C134.869 208.638 136.23 204.447 139.607 201.738C141.669 200.072 144.342 199.139 146.985 198.414C154.953 196.23 163.345 195.629 171.387 193.687C179.429 191.745 187.521 188.125 191.892 181.653C198.078 172.468 195.191 160.722 195.22 149.916C195.27 125.297 211.349 103.255 217.284 79.2627C219.222 71.419 219.944 62.7404 215.614 55.7468C212.669 50.9749 207.708 47.5745 202.491 44.9297C191.026 39.0961 177.994 36.5004 165.172 33.9728C147.352 30.4666 125.713 30.0132 111.902 18.6709C98.6472 7.78949 80.5137 0.028965 62.438 0.028965Z" fill="#009688"/>
<g opacity="0.5">
<path opacity="0.5" d="M127.079 95.3215C127.078 89.3874 126.063 83.49 124.072 77.8433L119.123 63.7844C119.123 63.5501 119.123 63.3197 119.123 63.0892C119.276 54.0781 111.609 49.582 108.656 50.0694C105.634 50.5681 97.2452 46.7143 97.2452 46.7143V46.8201C96.6701 46.2135 96.1514 45.5639 95.6946 44.878C97.1439 43.911 98.3676 42.6883 99.2937 41.2818C100.22 39.8752 100.83 38.3133 101.088 36.6878C101.345 35.0622 101.246 33.4059 100.795 31.816C100.344 30.2262 99.5508 28.735 98.4618 27.4301C99.3684 26.806 100.06 25.9561 100.454 24.9818C101.138 23.2173 100.615 21.2035 99.5011 19.6318C99.0276 18.9756 98.4742 18.371 97.8515 17.8295C96.9082 16.9734 95.8781 16.2017 94.7749 15.5248C92.0242 13.7793 89.0012 12.2793 85.702 11.7466C85.1311 11.6231 84.5367 11.6231 83.9658 11.7466C83.4703 11.9297 82.9986 12.1629 82.5595 12.4418C80.2995 13.6206 77.4869 13.1105 74.8805 12.9858C72.2741 12.8611 69.1068 13.5299 68.282 15.7704C68.0263 16.4618 68.0428 17.2099 67.8696 17.9202C67.4572 19.6582 65.9931 21.007 64.8631 22.4541C63.7331 23.9012 62.8877 25.8545 63.828 27.4263C64.1497 27.9552 64.6528 28.4426 64.6528 29.0472C64.6528 29.4817 64.3724 29.8708 64.2404 30.2864C63.9558 31.231 64.492 32.1756 65.3168 32.8594C65.6722 33.2105 66.0907 33.5031 66.554 33.7246C67.8613 34.3367 69.3666 34.5256 70.6987 35.0924C71.3636 35.3785 71.9736 35.7612 72.505 36.2258C73.156 36.8502 73.6648 37.5869 74.0018 38.3932C74.3389 39.1995 74.4974 40.0592 74.4681 40.9222L74.7444 40.9487C74.7444 41.0242 74.7444 41.096 74.7444 41.1716C75.033 41.2018 75.3382 41.2282 75.6393 41.2396C76.0724 41.8801 76.5679 42.4833 77.1198 43.0418C77.0263 43.3642 76.9205 43.6917 76.8023 44.0242C75.8331 44.64 67.9067 49.4762 58.8915 48.3125C49.2701 47.0694 43.7686 85.6076 43.7686 85.6076C43.412 87.8115 43.2383 90.0369 43.249 92.2649C43.2077 97.9322 44.5068 105.349 51.7445 104.257L55.5923 103.097V122.158C55.5923 122.158 56.1408 127.38 54.2189 130.848C52.2971 134.317 60.2689 133.085 60.2689 133.085C60.2689 133.085 60.5741 133.376 61.135 133.871L60.9577 134.328L61.1927 134.547C60.1443 137.831 58.7306 141.008 56.9738 144.027L57.2006 144.133C57.0563 144.386 56.9738 144.511 56.9738 144.511C56.9738 144.511 59.9349 145.897 64.0094 147.684C67.284 157.825 74.4516 181.311 72.0926 185.784L72.1586 185.913C72.5999 186.751 75.066 191.697 74.567 196.227C74.1175 200.277 80.2376 218.681 82.5223 225.365L81.4418 225.565L85.2896 238.245L84.4648 246.451C84.4648 246.451 79.7922 257.888 90.787 255.652C101.782 253.415 98.7588 244.215 98.7588 244.215L99.0351 225.565C99.0351 225.565 97.9752 225.025 96.6679 224.507C95.7688 222.282 93.8099 217.023 93.8099 213.384C93.8099 208.661 90.2343 188.27 90.2343 188.27V188.229V188.149V188.127L90.2137 187.855V187.809C90.2137 187.556 90.1683 187.209 90.1353 186.785V186.763C89.7229 181.25 88.4857 162.521 89.3889 152.758C90.1832 152.262 91.0095 151.811 91.8633 151.406C94.5398 157.602 101.439 174.344 100.998 181.367C100.45 190.057 100.862 183.234 100.998 182.123C101.039 181.779 101.068 182.195 101.081 183.128C101.081 183.298 101.081 183.487 101.081 183.687C101.081 183.887 101.081 184.11 101.081 184.341C101.081 184.571 101.081 184.821 101.081 185.096C101.081 185.227 101.081 185.361 101.081 185.497C101.081 185.769 101.081 186.054 101.081 186.351C101.081 186.499 101.081 186.651 101.081 186.804C101.081 187.56 101.081 188.399 101.052 189.271C101.052 189.445 101.052 189.622 101.052 189.8C101.052 190.333 101.052 190.877 101.023 191.429C101.023 192.184 100.99 192.917 100.973 193.677C100.932 195.377 100.879 197.096 100.813 198.706C100.813 198.885 100.806 199.062 100.792 199.238C100.778 199.591 100.763 199.936 100.747 200.274C100.73 200.611 100.714 200.941 100.697 201.264C100.681 201.584 100.663 201.895 100.643 202.197C100.623 202.552 100.598 202.892 100.577 203.217L99.0846 203.021L98.767 206.164C98.2668 211.155 98.9707 216.185 100.829 220.899C101.34 222.191 101.736 223.261 101.823 223.642C102.099 224.885 101.823 233.843 101.823 233.843C101.823 233.843 103.473 245.53 111.172 243.289C114.636 242.28 116.319 239.212 117.123 236.137C118.015 232.572 117.683 228.841 116.171 225.456C115.078 222.939 113.96 219.411 114.748 216.683C116.121 211.96 116.121 205.246 116.121 205.246L115.271 205.136C115.483 204.768 115.675 204.389 115.845 204.003C115.845 204.003 115.568 186.846 118.043 184.609C119.404 183.377 119.28 180.419 118.868 178.001C118.279 174.502 118.14 170.951 118.455 167.422C118.624 165.604 118.868 164.021 119.152 163.458C119.878 162.144 120.604 148.89 117.391 142.512L118.051 142.323L117.948 141.854L118.051 141.824C118.536 143.009 119.086 144.171 119.701 145.304C119.863 145.421 120.05 145.505 120.249 145.553C129.153 144.121 129.512 136.508 129.017 132.352C129.392 132.518 129.598 132.624 129.598 132.624L130.423 121.667C131.269 119.918 131.582 117.685 131.562 115.271C131.599 106.641 127.079 95.3215 127.079 95.3215ZM117.263 126.466C116.653 121.694 115.808 117.201 115.808 117.201L111.684 103.773V98.8843L118.224 121.252L117.263 126.466Z" fill="url(#paint0_linear)"/>
</g>
<path d="M98.7216 199.813L98.4165 202.884C97.9349 207.765 98.6173 212.683 100.417 217.299C100.907 218.564 101.291 219.607 101.373 219.981C101.637 221.198 101.373 229.944 101.373 229.944C101.373 229.944 102.965 241.366 110.393 239.178C113.733 238.196 115.342 235.192 116.133 232.189C116.992 228.705 116.67 225.064 115.21 221.753C114.154 219.293 113.073 215.836 113.836 213.18C115.164 208.563 115.164 202.004 115.164 202.004L98.7216 199.813Z" fill="#5A5773"/>
<path d="M90.7663 147.084C90.7663 147.084 101.109 170.169 100.577 178.67C100.045 187.171 100.445 180.491 100.577 179.399C100.813 177.453 100.577 200.557 99.7815 203.202C99.7815 203.202 110.657 210.49 114.9 200.773C114.9 200.773 114.636 184.008 117.02 181.821C118.332 180.619 118.204 177.725 117.816 175.364C117.244 171.948 117.105 168.483 117.404 165.038C117.564 163.262 117.787 161.698 118.076 161.165C118.872 159.707 119.668 143.184 114.892 138.567L90.7663 147.084Z" fill="#605D82"/>
<path opacity="0.1" d="M101.109 203.213C101.905 200.542 102.14 177.453 101.905 179.41C101.773 180.502 101.373 187.186 101.905 178.681C102.437 170.176 92.0943 147.095 92.0943 147.095L115.234 138.941C115.127 138.817 115.016 138.7 114.904 138.59L90.7704 147.095C90.7704 147.095 101.114 170.18 100.582 178.681C100.05 187.182 100.45 180.502 100.582 179.41C100.817 177.464 100.582 200.568 99.7856 203.213C99.7856 203.213 104.128 206.122 108.397 205.813C104.598 205.552 101.109 203.213 101.109 203.213Z" fill="black"/>
<path d="M81.747 221.923L85.4587 234.316L84.6627 242.333C84.6627 242.333 80.1551 253.509 90.7622 251.322C101.369 249.134 98.4536 240.146 98.4536 240.146L98.7175 221.923C98.7175 221.923 94.4738 219.735 92.618 219.981C90.7622 220.227 81.747 221.923 81.747 221.923Z" fill="#5A5773"/>
<path d="M63.4486 141.254C63.4486 141.254 75.6475 177.457 72.7318 183.045C72.7318 183.045 75.6475 188.391 75.1196 193.246C74.5918 198.101 83.607 224.103 83.607 224.103L96.8699 221.916C96.8699 221.916 93.6862 214.627 93.6862 210.01C93.6862 205.393 90.2384 185.452 90.2384 185.452C90.2384 185.452 87.3227 149.003 90.7704 145.115L63.4486 141.254Z" fill="#605D82"/>
<g opacity="0.1">
<path opacity="0.1" d="M89.7394 148.077C87.5413 156.329 89.9704 186.695 89.9704 186.695C89.9704 186.695 93.4181 206.617 93.4181 211.253C93.4181 214.778 95.2698 219.856 96.1482 222.063L96.8658 221.946C96.8658 221.946 93.682 214.657 93.682 210.04C93.682 205.423 90.2343 185.482 90.2343 185.482C90.2343 185.482 88.0156 157.731 89.7394 148.077Z" fill="black"/>
<path opacity="0.1" d="M72.7318 183.045L72.7978 183.17C72.8184 183.045 72.839 182.913 72.8514 182.792C72.8163 182.878 72.7764 182.962 72.7318 183.045Z" fill="black"/>
<path opacity="0.1" d="M90.1683 146.309C90.2888 145.89 90.4914 145.494 90.7663 145.142L63.4486 141.254C63.4486 141.254 63.6094 141.726 63.8857 142.569L90.1683 146.309Z" fill="black"/>
</g>
<path d="M127.099 128.132C127.099 128.132 131.079 141.734 119.144 143.683C118.95 143.637 118.769 143.555 118.612 143.441C118.612 143.441 111.717 131.049 117.02 126.19L127.099 128.132Z" fill="#A1616A"/>
<path d="M78.2993 37.7523C78.2993 37.7523 79.0953 47.9535 70.344 52.8161C61.5928 57.6788 88.9023 71.0387 88.9023 71.0387L103.225 50.1411C103.225 50.1411 97.1297 50.8628 93.4181 41.1527L78.2993 37.7523Z" fill="#A1616A"/>
<path opacity="0.1" d="M72.4638 53.5378C72.4638 53.5378 85.9907 79.2942 98.1896 54.9962L117.02 140.521C117.02 140.521 87.8424 148.784 87.5825 152.672C87.3227 156.559 58.1492 142.712 58.1492 142.712C58.1492 142.712 64.5126 132.02 62.9248 125.461C61.3371 118.902 72.4638 53.5378 72.4638 53.5378Z" fill="black"/>
<path d="M72.4638 53.0504C72.4638 53.0504 85.9907 78.8067 98.1896 54.5088L117.02 140.037C117.02 140.037 87.8424 148.3 87.5825 152.188C87.3227 156.076 58.1492 142.225 58.1492 142.225C58.1492 142.225 64.5126 131.532 62.9248 124.973C61.3371 118.414 72.4638 53.0504 72.4638 53.0504Z" fill="#E1E7EF"/>
<path d="M85.7267 228.728C85.7267 228.728 82.279 221.681 90.2343 221.681C98.1896 221.681 96.8658 227.999 96.8658 227.999L85.7267 228.728Z" fill="#5A5773"/>
<path d="M103.761 210.501C103.761 210.501 100.577 202.968 108.537 202.726C116.496 202.484 112.517 209.527 112.517 209.527L103.761 210.501Z" fill="#5A5773"/>
<path opacity="0.1" d="M96.9978 47.5757C96.9978 47.5757 105.085 51.354 108.005 50.8553C110.925 50.3565 118.612 54.9849 118.084 64.2189L122.876 77.9944C124.793 83.518 125.767 89.2799 125.763 95.0759C125.763 95.0759 132.658 112.569 128.947 120.345L128.151 131.037C128.151 131.037 122.051 127.879 115.684 128.85L117.288 120.118L110.112 95.3291L98.1772 68.8435L96.9978 47.5757Z" fill="black"/>
<path d="M96.9978 47.0959C96.9978 47.0959 105.085 50.8741 108.005 50.3754C110.925 49.8767 118.612 54.505 118.084 63.7391L122.876 77.5146C124.793 83.0382 125.767 88.8 125.763 94.5961C125.763 94.5961 132.658 112.089 128.947 119.865L128.151 130.557C128.151 130.557 122.051 127.399 115.684 128.37L117.276 119.623L110.112 94.8416L98.1896 68.3561L96.9978 47.0959Z" fill="#67647E"/>
<path opacity="0.1" d="M110.393 76.6191V104.076L114.372 117.198C114.372 117.198 117.024 131.532 116.228 135.907C115.432 140.283 102.701 141.254 99.2536 137.608C95.8059 133.962 97.6617 102.848 97.6617 102.848L96.9978 57.3009L97.5298 55.8425L110.393 76.6191Z" fill="black"/>
<path d="M110.937 75.4063V102.863L114.917 115.985C114.917 115.985 117.569 130.319 116.773 134.695C115.977 139.07 103.246 140.041 99.798 136.395C96.3503 132.749 98.2061 101.635 98.2061 101.635L97.5421 56.0768L110.937 75.4063Z" fill="#67647E"/>
<path opacity="0.1" d="M57.4811 98.2459L65.9684 122.427L61.9887 132.753C61.9887 132.753 80.8191 150.975 92.7541 142.229C92.7541 142.229 94.0821 105.051 91.4262 96.3039C88.7703 87.5572 76.0435 58.1435 76.0435 58.1435L73.4082 50.3792L59.3534 57.6675L57.4811 98.2459Z" fill="black"/>
<path d="M56.8171 97.0292V120.832C56.8171 120.832 57.3491 125.937 55.4892 129.337C53.6292 132.737 61.3247 131.525 61.3247 131.525C61.3247 131.525 80.1551 149.747 92.0901 141.001C92.0901 141.001 93.4181 103.823 90.7622 95.0759C88.1063 86.3292 75.3795 56.9155 75.3795 56.9155L72.7277 49.1399L58.6729 56.4281L56.8171 97.0292Z" fill="#67647E"/>
<path opacity="0.1" d="M77.3714 44.912C77.3714 44.912 69.2841 50.3792 60.0009 49.1626C50.7176 47.946 45.4141 85.6114 45.4141 85.6114C45.4141 85.6114 41.9664 105.05 53.1055 103.35L77.7714 95.8164C77.7714 95.8164 72.4679 90.712 73.2638 84.153L61.3247 88.5244L61.8608 67.6307L77.3714 44.912Z" fill="black"/>
<path opacity="0.1" d="M45.942 85.124C45.942 85.124 42.4943 104.563 53.6333 102.863L78.2993 95.3291C78.2993 95.3291 72.9958 90.2284 73.7917 83.6656L61.8608 88.0408L45.942 85.124Z" fill="black"/>
<path d="M73.2061 86.2273C73.2061 86.2273 81.4831 76.2565 87.5784 81.0435C93.6738 85.8305 75.3918 94.6036 75.3918 94.6036L73.2061 86.2273Z" fill="#A1616A"/>
<path d="M77.3714 44.4247C77.3714 44.4247 69.2841 49.8918 60.0009 48.6752C50.7176 47.4586 45.4141 85.124 45.4141 85.124C45.4141 85.124 41.9664 104.563 53.1055 102.863L77.7714 95.329C77.7714 95.329 72.4679 90.2246 73.2638 83.6656L61.3247 88.0408L61.8608 67.1433L75.3877 56.942L77.3714 44.4247Z" fill="#67647E"/>
<path opacity="0.1" d="M93.682 41.6288L78.5632 38.2284C78.5632 38.2284 79.3509 39.0445 78.4313 42.2371C80.8645 44.795 83.8544 48.1917 87.8465 48.1917C90.7033 48.1966 93.4848 47.352 95.7729 45.7849C94.9191 44.4704 94.2183 43.0774 93.682 41.6288Z" fill="black"/>
<path d="M87.5825 47.708C94.9075 47.708 100.846 42.2679 100.846 35.5572C100.846 28.8464 94.9075 23.4063 87.5825 23.4063C80.2576 23.4063 74.3196 28.8464 74.3196 35.5572C74.3196 42.2679 80.2576 47.708 87.5825 47.708Z" fill="#A1616A"/>
<path opacity="0.1" d="M92.6098 30.2827C95.6863 29.8028 99.068 28.5522 100.099 25.8545C100.759 24.1279 100.256 22.1632 99.1794 20.6254C98.103 19.0877 96.5194 17.9051 94.8862 16.8472C92.2345 15.1394 89.3105 13.6735 86.1185 13.1596C85.5681 13.0391 84.9945 13.0391 84.4441 13.1596C83.9655 13.3391 83.5104 13.5672 83.0873 13.8397C80.9057 14.9921 78.1921 14.4933 75.664 14.3724C73.136 14.2515 70.1048 14.9052 69.3089 17.0928C69.0614 17.7691 69.0779 18.4983 68.8965 19.1935C68.4841 20.8937 67.086 22.2161 66.0096 23.6329C64.9332 25.0498 64.1043 26.9654 65.0116 28.4918C65.3209 29.0094 65.8364 29.4854 65.8364 30.0749C65.7568 30.4938 65.6182 30.9015 65.424 31.2877C65.0487 32.5421 66.1416 33.8078 67.4036 34.4047C68.6655 35.0017 70.1172 35.1868 71.4039 35.7422C72.6082 36.2867 73.6165 37.1366 74.3089 38.1908C75.0012 39.2451 75.3485 40.4594 75.3094 41.6892C76.4806 41.8139 77.8457 41.8781 78.6375 41.0771C78.9921 40.7182 79.1654 40.2384 79.487 39.8568C79.8994 39.358 80.5428 39.0633 81.0707 38.6628C83.8462 36.5734 81.8749 33.6869 83.4461 31.435C84.2709 30.2751 85.5824 30.6303 86.9103 30.6491C88.8185 30.6901 90.7266 30.5674 92.6098 30.2827Z" fill="black"/>
<path d="M92.3458 30.0409C95.4224 29.5611 98.8041 28.3105 99.8351 25.6128C100.495 23.8861 99.9918 21.9214 98.9155 20.3837C97.8391 18.8459 96.2554 17.6634 94.6223 16.6054C91.9705 14.8977 89.0466 13.4317 85.8546 12.9179C85.3042 12.7973 84.7306 12.7973 84.1802 12.9179C83.7016 13.0973 83.2465 13.3255 82.8234 13.598C80.6418 14.7503 77.9281 14.2516 75.4001 14.1307C72.872 14.0098 69.8409 14.6634 69.0449 16.851C68.7975 17.5273 68.814 18.2565 68.6325 18.9517C68.2201 20.6519 66.8221 21.9743 65.7457 23.3912C64.6693 24.808 63.8404 26.7236 64.7477 28.25C65.057 28.7676 65.5725 29.2437 65.5725 29.8331C65.4929 30.252 65.3543 30.6597 65.1601 31.0459C64.7848 32.3003 65.8776 33.566 67.1396 34.163C68.4016 34.7599 69.8532 34.9451 71.1399 35.5005C72.3492 36.0444 73.3618 36.8959 74.0566 37.9533C74.7514 39.0106 75.099 40.229 75.0578 41.4626C76.229 41.5872 77.5941 41.6515 78.3859 40.8505C78.7406 40.4915 78.9138 40.0117 79.2355 39.6301C79.6479 39.1314 80.2912 38.8367 80.8191 38.4362C83.5946 36.3468 81.6233 33.4602 83.1946 31.2084C84.0194 30.0485 85.3308 30.4036 86.6588 30.4225C88.5633 30.4577 90.4672 30.33 92.3458 30.0409Z" fill="#4A4347"/>
<path opacity="0.1" d="M108.401 70.9102C108.401 70.9102 111.316 84.7613 109.993 90.1075C109.184 93.2176 109.303 96.4698 110.339 99.5229" fill="black"/>
<path opacity="0.1" d="M61.267 76.7401C61.267 76.7401 59.9968 85.9741 62.1124 87.9161L61.267 76.7401Z" fill="black"/>
<path d="M135.323 190.537C135.487 190.537 135.644 190.477 135.76 190.371C135.876 190.265 135.941 190.121 135.941 189.97C135.941 189.82 135.876 189.676 135.76 189.57C135.644 189.463 135.487 189.404 135.323 189.404C135.159 189.404 135.001 189.463 134.885 189.57C134.769 189.676 134.704 189.82 134.704 189.97C134.704 190.121 134.769 190.265 134.885 190.371C135.001 190.477 135.159 190.537 135.323 190.537Z" fill="black"/>
<g opacity="0.5">
<path opacity="0.5" d="M325.8 124.512V124.199L213.28 44.931C213.209 44.8828 213.123 44.8568 213.034 44.8568C212.946 44.8568 212.86 44.8828 212.789 44.931L100.264 124.199V247.067H100.478V247.264H326.019V124.395L325.8 124.512Z" fill="url(#paint1_linear)"/>
</g>
<path d="M321.915 243.641H104.165V125.003L213.04 48.3049L321.915 125.003V243.641Z" fill="white"/>
<path d="M314.08 236.609H112.001V126.511L213.04 55.3325L314.08 126.511V236.609Z" fill="#E0E0E0"/>
<path d="M247.318 53.6874L124.051 83.2935L165.151 226.925L288.419 197.319L247.318 53.6874Z" fill="#009688"/>
<path d="M277.376 75.5084H149.942V223.994H277.376V75.5084Z" fill="#F5F5F5"/>
<path opacity="0.05" d="M105.196 125.192L214.071 184.511L105.196 243.829V125.192Z" fill="black"/>
<path d="M104.372 125.192L213.247 184.511L104.372 243.829V125.192Z" fill="white"/>
<path opacity="0.05" d="M321.297 125.192L212.422 184.511L321.297 243.829V125.192Z" fill="black"/>
<path d="M322.122 125.192L213.247 184.511L322.122 243.829V125.192Z" fill="white"/>
<path opacity="0.05" d="M104.372 241.94L213.247 164.108L322.122 241.94H104.372Z" fill="black"/>
<path d="M104.372 243.829L213.247 165.997L322.122 243.829H104.372Z" fill="white"/>
<path d="M126.497 252.841C126.497 252.841 121.029 235.838 127.524 223.317C130.284 218.083 131.116 212.17 129.895 206.466C129.293 203.763 128.422 201.116 127.293 198.558" stroke="#535461" stroke-width="2" stroke-miterlimit="10"/>
<path d="M131.331 190.647C131.331 192.732 127.206 198.774 127.206 198.774C127.206 198.774 123.082 192.729 123.082 190.647C123.082 189.645 123.517 188.684 124.29 187.975C125.064 187.267 126.113 186.869 127.206 186.869C128.3 186.869 129.349 187.267 130.123 187.975C130.896 188.684 131.331 189.645 131.331 190.647Z" fill="#009688"/>
<path d="M138.156 202.193C136.919 203.943 129.875 206.965 129.875 206.965C129.875 206.965 130.003 199.839 131.24 198.09C131.857 197.299 132.783 196.756 133.825 196.574C134.868 196.392 135.947 196.586 136.838 197.114C137.728 197.643 138.362 198.466 138.608 199.412C138.854 200.358 138.692 201.354 138.156 202.193Z" fill="#009688"/>
<path d="M137.842 221.919C135.809 222.856 128.064 222.21 128.064 222.21C128.064 222.21 132.102 216.12 134.131 215.183C134.616 214.934 135.152 214.778 135.705 214.723C136.259 214.669 136.818 214.718 137.35 214.867C137.882 215.016 138.376 215.262 138.802 215.591C139.227 215.919 139.576 216.323 139.826 216.778C140.077 217.233 140.225 217.73 140.26 218.239C140.296 218.748 140.218 219.258 140.033 219.739C139.848 220.219 139.558 220.661 139.181 221.036C138.805 221.411 138.35 221.713 137.842 221.923V221.919Z" fill="#009688"/>
<path d="M133.949 236.802C132.118 238.041 124.365 238.6 124.365 238.6C124.365 238.6 127.219 231.973 129.05 230.734C129.931 230.196 131.004 229.988 132.048 230.155C133.091 230.322 134.024 230.85 134.654 231.63C135.284 232.41 135.562 233.382 135.431 234.345C135.3 235.308 134.769 236.188 133.949 236.802Z" fill="#009688"/>
<path d="M121.21 207.365C122.86 208.816 130.444 210.324 130.444 210.324C130.444 210.324 128.584 203.406 126.951 201.955C126.156 201.312 125.122 200.973 124.063 201.01C123.003 201.047 122 201.457 121.261 202.153C120.523 202.85 120.105 203.781 120.096 204.752C120.086 205.723 120.485 206.66 121.21 207.369V207.365Z" fill="#009688"/>
<path d="M116.896 224.825C118.93 225.762 126.674 225.116 126.674 225.116C126.674 225.116 122.637 219.025 120.608 218.088C119.639 217.687 118.539 217.644 117.536 217.969C116.534 218.293 115.707 218.96 115.228 219.83C114.749 220.699 114.655 221.705 114.966 222.636C115.277 223.568 115.969 224.353 116.896 224.829V224.825Z" fill="#009688"/>
<path d="M115.247 242.318C117.078 243.557 124.831 244.117 124.831 244.117C124.831 244.117 121.977 237.49 120.146 236.25C119.714 235.926 119.214 235.686 118.678 235.545C118.141 235.403 117.579 235.363 117.024 235.426C116.47 235.489 115.936 235.655 115.454 235.914C114.972 236.172 114.552 236.517 114.22 236.928C113.888 237.34 113.65 237.808 113.522 238.306C113.394 238.804 113.377 239.321 113.473 239.825C113.569 240.329 113.776 240.81 114.08 241.238C114.385 241.667 114.782 242.034 115.247 242.318Z" fill="#009688"/>
<path opacity="0.5" d="M208.504 82.3092H157.366V86.0875H208.504V82.3092Z" fill="#009688"/>
<path opacity="0.5" d="M267.89 97.4222H157.366V101.2H267.89V97.4222Z" fill="#009688"/>
<path opacity="0.5" d="M267.89 107.246H157.366V111.024H267.89V107.246Z" fill="#009688"/>
<path opacity="0.4" d="M267.89 117.069H157.366V120.847H267.89V117.069Z" fill="#009688"/>
<path opacity="0.4" d="M267.89 126.893H157.366V130.671H267.89V126.893Z" fill="#009688"/>
<path opacity="0.3" d="M220.464 136.716H157.366V140.494H220.464V136.716Z" fill="#009688"/>
<path opacity="0.3" d="M243.558 146.539H157.366V150.318H243.558V146.539Z" fill="#009688"/>
</g>
<defs>
<linearGradient id="paint0_linear" x1="43.2531" y1="133.818" x2="131.516" y2="133.818" gradientUnits="userSpaceOnUse">
<stop stop-color="#808080" stop-opacity="0.25"/>
<stop offset="0.54" stop-color="#808080" stop-opacity="0.12"/>
<stop offset="1" stop-color="#808080" stop-opacity="0.1"/>
</linearGradient>
<linearGradient id="paint1_linear" x1="143868" y1="149937" x2="143868" y2="41497.8" gradientUnits="userSpaceOnUse">
<stop stop-color="#808080" stop-opacity="0.25"/>
<stop offset="0.54" stop-color="#808080" stop-opacity="0.12"/>
<stop offset="1" stop-color="#808080" stop-opacity="0.1"/>
</linearGradient>
<clipPath id="clip0">
<rect width="396" height="275" fill="white"/>
</clipPath>
</defs>
</svg>
